<svg width="610" height="197" viewBox="0 0 610 197" fill="none" xmlns="http://www.w3.org/2000/svg">
<path d="M147.336 91.672C142.408 91.672 137.992 90.872 134.088 89.272C130.184 87.672 127.048 85.304 124.68 82.168C122.376 79.032 121.16 75.256 121.032 70.84H138.504C138.76 73.336 139.624 75.256 141.096 76.6C142.568 77.88 144.488 78.52 146.856 78.52C149.288 78.52 151.208 77.976 152.616 76.888C154.024 75.736 154.728 74.168 154.728 72.184C154.728 70.52 154.152 69.144 153 68.056C151.912 66.968 150.536 66.072 148.872 65.368C147.272 64.664 144.968 63.864 141.96 62.968C137.608 61.624 134.056 60.28 131.304 58.936C128.552 57.592 126.184 55.608 124.2 52.984C122.216 50.36 121.224 46.936 121.224 42.712C121.224 36.44 123.496 31.544 128.04 28.024C132.584 24.44 138.504 22.648 145.8 22.648C153.224 22.648 159.208 24.44 163.752 28.024C168.296 31.544 170.728 36.472 171.048 42.808H153.288C153.16 40.632 152.36 38.936 150.888 37.72C149.416 36.44 147.528 35.8 145.224 35.8C143.24 35.8 141.64 36.344 140.424 37.432C139.208 38.456 138.6 39.96 138.6 41.944C138.6 44.12 139.624 45.816 141.672 47.032C143.72 48.248 146.92 49.56 151.272 50.968C155.624 52.44 159.144 53.848 161.832 55.192C164.584 56.536 166.952 58.488 168.936 61.048C170.92 63.608 171.912 66.904 171.912 70.936C171.912 74.776 170.92 78.264 168.936 81.4C167.016 84.536 164.2 87.032 160.488 88.888C156.776 90.744 152.392 91.672 147.336 91.672ZM198.431 45.016C200.031 42.52 202.239 40.504 205.055 38.968C207.871 37.432 211.167 36.664 214.943 36.664C219.359 36.664 223.359 37.784 226.943 40.024C230.527 42.264 233.343 45.464 235.391 49.624C237.503 53.784 238.559 58.616 238.559 64.12C238.559 69.624 237.503 74.488 235.391 78.712C233.343 82.872 230.527 86.104 226.943 88.408C223.359 90.648 219.359 91.768 214.943 91.768C211.231 91.768 207.935 91 205.055 89.464C202.239 87.928 200.031 85.944 198.431 83.512V116.536H182.015V37.432H198.431V45.016ZM221.855 64.12C221.855 60.024 220.703 56.824 218.399 54.52C216.159 52.152 213.375 50.968 210.047 50.968C206.783 50.968 203.999 52.152 201.695 54.52C199.455 56.888 198.335 60.12 198.335 64.216C198.335 68.312 199.455 71.544 201.695 73.912C203.999 76.28 206.783 77.464 210.047 77.464C213.311 77.464 216.095 76.28 218.399 73.912C220.703 71.48 221.855 68.216 221.855 64.12ZM271.555 91.768C266.307 91.768 261.571 90.648 257.347 88.408C253.187 86.168 249.891 82.968 247.459 78.808C245.091 74.648 243.907 69.784 243.907 64.216C243.907 58.712 245.123 53.88 247.555 49.72C249.987 45.496 253.315 42.264 257.539 40.024C261.763 37.784 266.499 36.664 271.747 36.664C276.995 36.664 281.731 37.784 285.955 40.024C290.179 42.264 293.507 45.496 295.939 49.72C298.371 53.88 299.587 58.712 299.587 64.216C299.587 69.72 298.339 74.584 295.843 78.808C293.411 82.968 290.051 86.168 285.763 88.408C281.539 90.648 276.803 91.768 271.555 91.768ZM271.555 77.56C274.691 77.56 277.347 76.408 279.523 74.104C281.763 71.8 282.883 68.504 282.883 64.216C282.883 59.928 281.795 56.632 279.619 54.328C277.507 52.024 274.883 50.872 271.747 50.872C268.547 50.872 265.891 52.024 263.779 54.328C261.667 56.568 260.611 59.864 260.611 64.216C260.611 68.504 261.635 71.8 263.683 74.104C265.795 76.408 268.419 77.56 271.555 77.56ZM324.712 46.36C326.632 43.416 329.032 41.112 331.912 39.448C334.792 37.72 337.992 36.856 341.512 36.856V54.232H337C332.904 54.232 329.832 55.128 327.784 56.92C325.736 58.648 324.712 61.72 324.712 66.136V91H308.296V37.432H324.712V46.36ZM379.214 77.08V91H370.862C364.91 91 360.27 89.56 356.942 86.68C353.614 83.736 351.95 78.968 351.95 72.376V51.064H345.422V37.432H351.95V24.376H368.366V37.432H379.118V51.064H368.366V72.568C368.366 74.168 368.75 75.32 369.518 76.024C370.286 76.728 371.566 77.08 373.358 77.08H379.214ZM410.15 91.768C405.478 91.768 401.318 90.968 397.67 89.368C394.022 87.768 391.142 85.592 389.03 82.84C386.918 80.024 385.734 76.888 385.478 73.432H401.702C401.894 75.288 402.758 76.792 404.294 77.944C405.83 79.096 407.718 79.672 409.958 79.672C412.006 79.672 413.574 79.288 414.662 78.52C415.814 77.688 416.39 76.632 416.39 75.352C416.39 73.816 415.59 72.696 413.99 71.992C412.39 71.224 409.798 70.392 406.214 69.496C402.374 68.6 399.174 67.672 396.614 66.712C394.054 65.688 391.846 64.12 389.99 62.008C388.134 59.832 387.206 56.92 387.206 53.272C387.206 50.2 388.038 47.416 389.702 44.92C391.43 42.36 393.926 40.344 397.19 38.872C400.518 37.4 404.454 36.664 408.998 36.664C415.718 36.664 420.998 38.328 424.838 41.656C428.742 44.984 430.982 49.4 431.558 54.904H416.39C416.134 53.048 415.302 51.576 413.894 50.488C412.55 49.4 410.758 48.856 408.518 48.856C406.598 48.856 405.126 49.24 404.102 50.008C403.078 50.712 402.566 51.704 402.566 52.984C402.566 54.52 403.366 55.672 404.966 56.44C406.63 57.208 409.19 57.976 412.646 58.744C416.614 59.768 419.846 60.792 422.342 61.816C424.838 62.776 427.014 64.376 428.87 66.616C430.79 68.792 431.782 71.736 431.846 75.448C431.846 78.584 430.95 81.4 429.158 83.896C427.43 86.328 424.902 88.248 421.574 89.656C418.31 91.064 414.502 91.768 410.15 91.768ZM473.57 91L463.298 76.12L454.658 91H436.898L454.562 63.64L436.418 37.432H454.85L465.122 52.216L473.762 37.432H491.522L473.57 64.408L492.002 91H473.57Z" fill="#3579DE"/>
<path d="M14.88 178.336C12.544 178.336 10.432 177.936 8.544 177.136C6.688 176.336 5.216 175.184 4.128 173.68C3.04 172.176 2.48 170.4 2.448 168.352H9.648C9.744 169.728 10.224 170.816 11.088 171.616C11.984 172.416 13.2 172.816 14.736 172.816C16.304 172.816 17.536 172.448 18.432 171.712C19.328 170.944 19.776 169.952 19.776 168.736C19.776 167.744 19.472 166.928 18.864 166.288C18.256 165.648 17.488 165.152 16.56 164.8C15.664 164.416 14.416 164 12.816 163.552C10.64 162.912 8.864 162.288 7.488 161.68C6.144 161.04 4.976 160.096 3.984 158.848C3.024 157.568 2.544 155.872 2.544 153.76C2.544 151.776 3.04 150.048 4.032 148.576C5.024 147.104 6.416 145.984 8.208 145.216C10 144.416 12.048 144.016 14.352 144.016C17.808 144.016 20.608 144.864 22.752 146.56C24.928 148.224 26.128 150.56 26.352 153.568H18.96C18.896 152.416 18.4 151.472 17.472 150.736C16.576 149.968 15.376 149.584 13.872 149.584C12.56 149.584 11.504 149.92 10.704 150.592C9.936 151.264 9.552 152.24 9.552 153.52C9.552 154.416 9.84 155.168 10.416 155.776C11.024 156.352 11.76 156.832 12.624 157.216C13.52 157.568 14.768 157.984 16.368 158.464C18.544 159.104 20.32 159.744 21.696 160.384C23.072 161.024 24.256 161.984 25.248 163.264C26.24 164.544 26.736 166.224 26.736 168.304C26.736 170.096 26.272 171.76 25.344 173.296C24.416 174.832 23.056 176.064 21.264 176.992C19.472 177.888 17.344 178.336 14.88 178.336ZM58.002 151.408L41.538 190.576H34.386L40.146 177.328L29.49 151.408H37.026L43.89 169.984L50.85 151.408H58.002ZM76.3605 151.024C79.5285 151.024 82.0885 152.032 84.0405 154.048C85.9925 156.032 86.9685 158.816 86.9685 162.4V178H80.2485V163.312C80.2485 161.2 79.7205 159.584 78.6645 158.464C77.6085 157.312 76.1685 156.736 74.3445 156.736C72.4885 156.736 71.0165 157.312 69.9285 158.464C68.8725 159.584 68.3445 161.2 68.3445 163.312V178H61.6245V151.408H68.3445V154.72C69.2405 153.568 70.3765 152.672 71.7525 152.032C73.1605 151.36 74.6965 151.024 76.3605 151.024ZM101.183 156.928V169.792C101.183 170.688 101.391 171.344 101.807 171.76C102.255 172.144 102.991 172.336 104.015 172.336H107.135V178H102.911C97.2469 178 94.4149 175.248 94.4149 169.744V156.928H91.2469V151.408H94.4149V144.832H101.183V151.408H107.135V156.928H101.183ZM126.944 151.024C128.96 151.024 130.752 151.472 132.32 152.368C133.888 153.232 135.104 154.528 135.968 156.256C136.864 157.952 137.312 160 137.312 162.4V178H130.592V163.312C130.592 161.2 130.064 159.584 129.008 158.464C127.952 157.312 126.512 156.736 124.688 156.736C122.832 156.736 121.36 157.312 120.272 158.464C119.216 159.584 118.688 161.2 118.688 163.312V178H111.968V142.48H118.688V154.72C119.552 153.568 120.704 152.672 122.144 152.032C123.584 151.36 125.184 151.024 126.944 151.024ZM168.423 164.128C168.423 165.088 168.359 165.952 168.231 166.72H148.791C148.951 168.64 149.623 170.144 150.807 171.232C151.991 172.32 153.447 172.864 155.175 172.864C157.671 172.864 159.447 171.792 160.503 169.648H167.751C166.983 172.208 165.511 174.32 163.335 175.984C161.159 177.616 158.487 178.432 155.319 178.432C152.759 178.432 150.455 177.872 148.407 176.752C146.391 175.6 144.807 173.984 143.655 171.904C142.535 169.824 141.975 167.424 141.975 164.704C141.975 161.952 142.535 159.536 143.655 157.456C144.775 155.376 146.343 153.776 148.359 152.656C150.375 151.536 152.695 150.976 155.319 150.976C157.847 150.976 160.103 151.52 162.087 152.608C164.103 153.696 165.655 155.248 166.743 157.264C167.863 159.248 168.423 161.536 168.423 164.128ZM161.463 162.208C161.431 160.48 160.807 159.104 159.591 158.08C158.375 157.024 156.887 156.496 155.127 156.496C153.463 156.496 152.055 157.008 150.903 158.032C149.783 159.024 149.095 160.416 148.839 162.208H161.463ZM181.152 156.928V169.792C181.152 170.688 181.36 171.344 181.776 171.76C182.224 172.144 182.96 172.336 183.984 172.336H187.104V178H182.88C177.216 178 174.384 175.248 174.384 169.744V156.928H171.216V151.408H174.384V144.832H181.152V151.408H187.104V156.928H181.152ZM195.345 148.24C194.161 148.24 193.169 147.872 192.369 147.136C191.601 146.368 191.217 145.424 191.217 144.304C191.217 143.184 191.601 142.256 192.369 141.52C193.169 140.752 194.161 140.368 195.345 140.368C196.529 140.368 197.505 140.752 198.273 141.52C199.073 142.256 199.473 143.184 199.473 144.304C199.473 145.424 199.073 146.368 198.273 147.136C197.505 147.872 196.529 148.24 195.345 148.24ZM198.657 151.408V178H191.937V151.408H198.657ZM203.568 164.704C203.568 161.952 204.128 159.552 205.248 157.504C206.368 155.424 207.92 153.824 209.904 152.704C211.888 151.552 214.16 150.976 216.72 150.976C220.016 150.976 222.736 151.808 224.88 153.472C227.056 155.104 228.512 157.408 229.248 160.384H222C221.616 159.232 220.96 158.336 220.032 157.696C219.136 157.024 218.016 156.688 216.672 156.688C214.752 156.688 213.232 157.392 212.112 158.8C210.992 160.176 210.432 162.144 210.432 164.704C210.432 167.232 210.992 169.2 212.112 170.608C213.232 171.984 214.752 172.672 216.672 172.672C219.392 172.672 221.168 171.456 222 169.024H229.248C228.512 171.904 227.056 174.192 224.88 175.888C222.704 177.584 219.984 178.432 216.72 178.432C214.16 178.432 211.888 177.872 209.904 176.752C207.92 175.6 206.368 174 205.248 171.952C204.128 169.872 203.568 167.456 203.568 164.704ZM271.385 178L267.737 174.4C264.633 177.184 260.841 178.576 256.361 178.576C253.897 178.576 251.721 178.16 249.833 177.328C247.977 176.464 246.537 175.264 245.513 173.728C244.489 172.16 243.977 170.352 243.977 168.304C243.977 166.096 244.601 164.112 245.849 162.352C247.097 160.592 248.937 159.168 251.369 158.08C250.505 157.024 249.881 156.016 249.497 155.056C249.113 154.064 248.921 153.008 248.921 151.888C248.921 150.352 249.321 148.976 250.121 147.76C250.921 146.512 252.057 145.536 253.529 144.832C255.033 144.128 256.777 143.776 258.761 143.776C260.777 143.776 262.505 144.16 263.945 144.928C265.385 145.696 266.457 146.72 267.161 148C267.865 149.28 268.169 150.704 268.073 152.272H261.545C261.577 151.216 261.321 150.416 260.777 149.872C260.233 149.296 259.497 149.008 258.569 149.008C257.673 149.008 256.921 149.28 256.313 149.824C255.737 150.336 255.449 151.008 255.449 151.84C255.449 152.64 255.689 153.44 256.169 154.24C256.649 155.008 257.433 155.968 258.521 157.12L266.969 165.472C267.033 165.408 267.081 165.344 267.113 165.28C267.145 165.216 267.177 165.152 267.209 165.088L269.945 160.528H276.953L273.593 166.432C272.953 167.68 272.265 168.864 271.529 169.984L279.641 178H271.385ZM256.553 173.008C259.177 173.008 261.497 172.08 263.513 170.224L255.257 162.064C252.153 163.44 250.601 165.392 250.601 167.92C250.601 169.36 251.145 170.576 252.233 171.568C253.321 172.528 254.761 173.008 256.553 173.008ZM292.774 161.2C292.774 157.904 293.51 154.96 294.982 152.368C296.486 149.744 298.518 147.712 301.078 146.272C303.67 144.8 306.566 144.064 309.766 144.064C313.51 144.064 316.79 145.024 319.606 146.944C322.422 148.864 324.39 151.52 325.51 154.912H317.782C317.014 153.312 315.926 152.112 314.518 151.312C313.142 150.512 311.542 150.112 309.718 150.112C307.766 150.112 306.022 150.576 304.486 151.504C302.982 152.4 301.798 153.68 300.934 155.344C300.102 157.008 299.686 158.96 299.686 161.2C299.686 163.408 300.102 165.36 300.934 167.056C301.798 168.72 302.982 170.016 304.486 170.944C306.022 171.84 307.766 172.288 309.718 172.288C311.542 172.288 313.142 171.888 314.518 171.088C315.926 170.256 317.014 169.04 317.782 167.44H325.51C324.39 170.864 322.422 173.536 319.606 175.456C316.822 177.344 313.542 178.288 309.766 178.288C306.566 178.288 303.67 177.568 301.078 176.128C298.518 174.656 296.486 172.624 294.982 170.032C293.51 167.44 292.774 164.496 292.774 161.2ZM343.058 178.432C340.498 178.432 338.194 177.872 336.146 176.752C334.098 175.6 332.482 173.984 331.298 171.904C330.146 169.824 329.57 167.424 329.57 164.704C329.57 161.984 330.162 159.584 331.346 157.504C332.562 155.424 334.21 153.824 336.29 152.704C338.37 151.552 340.69 150.976 343.25 150.976C345.81 150.976 348.13 151.552 350.21 152.704C352.29 153.824 353.922 155.424 355.106 157.504C356.322 159.584 356.93 161.984 356.93 164.704C356.93 167.424 356.306 169.824 355.057 171.904C353.842 173.984 352.178 175.6 350.066 176.752C347.986 177.872 345.65 178.432 343.058 178.432ZM343.058 172.576C344.274 172.576 345.41 172.288 346.466 171.712C347.554 171.104 348.418 170.208 349.058 169.024C349.698 167.84 350.018 166.4 350.018 164.704C350.018 162.176 349.346 160.24 348.002 158.896C346.69 157.52 345.074 156.832 343.154 156.832C341.234 156.832 339.618 157.52 338.306 158.896C337.026 160.24 336.386 162.176 336.386 164.704C336.386 167.232 337.01 169.184 338.258 170.56C339.538 171.904 341.138 172.576 343.058 172.576ZM376.595 151.024C379.763 151.024 382.323 152.032 384.275 154.048C386.227 156.032 387.203 158.816 387.203 162.4V178H380.483V163.312C380.483 161.2 379.955 159.584 378.899 158.464C377.843 157.312 376.403 156.736 374.579 156.736C372.723 156.736 371.251 157.312 370.163 158.464C369.107 159.584 368.579 161.2 368.579 163.312V178H361.859V151.408H368.579V154.72C369.475 153.568 370.611 152.672 371.987 152.032C373.395 151.36 374.931 151.024 376.595 151.024ZM403.769 178.432C401.593 178.432 399.641 178.048 397.913 177.28C396.185 176.48 394.809 175.408 393.785 174.064C392.793 172.72 392.249 171.232 392.153 169.6H398.921C399.049 170.624 399.545 171.472 400.409 172.144C401.305 172.816 402.409 173.152 403.721 173.152C405.001 173.152 405.993 172.896 406.697 172.384C407.433 171.872 407.801 171.216 407.801 170.416C407.801 169.552 407.353 168.912 406.457 168.496C405.593 168.048 404.201 167.568 402.281 167.056C400.297 166.576 398.665 166.08 397.385 165.568C396.137 165.056 395.049 164.272 394.121 163.216C393.225 162.16 392.777 160.736 392.777 158.944C392.777 157.472 393.193 156.128 394.025 154.912C394.889 153.696 396.105 152.736 397.673 152.032C399.273 151.328 401.145 150.976 403.289 150.976C406.457 150.976 408.985 151.776 410.873 153.376C412.761 154.944 413.801 157.072 413.993 159.76H407.561C407.465 158.704 407.017 157.872 406.217 157.264C405.449 156.624 404.409 156.304 403.097 156.304C401.881 156.304 400.937 156.528 400.265 156.976C399.625 157.424 399.305 158.048 399.305 158.848C399.305 159.744 399.753 160.432 400.649 160.912C401.545 161.36 402.937 161.824 404.825 162.304C406.745 162.784 408.329 163.28 409.577 163.792C410.825 164.304 411.897 165.104 412.793 166.192C413.721 167.248 414.201 168.656 414.233 170.416C414.233 171.952 413.801 173.328 412.937 174.544C412.105 175.76 410.889 176.72 409.289 177.424C407.721 178.096 405.881 178.432 403.769 178.432ZM427.574 156.928V169.792C427.574 170.688 427.782 171.344 428.198 171.76C428.646 172.144 429.382 172.336 430.406 172.336H433.526V178H429.302C423.638 178 420.806 175.248 420.806 169.744V156.928H417.638V151.408H420.806V144.832H427.574V151.408H433.526V156.928H427.574ZM445.079 155.536C445.943 154.128 447.063 153.024 448.439 152.224C449.847 151.424 451.447 151.024 453.239 151.024V158.08H451.463C449.351 158.08 447.751 158.576 446.663 159.568C445.607 160.56 445.079 162.288 445.079 164.752V178H438.359V151.408H445.079V155.536ZM482.869 151.408V178H476.101V174.64C475.237 175.792 474.101 176.704 472.693 177.376C471.317 178.016 469.813 178.336 468.181 178.336C466.101 178.336 464.261 177.904 462.661 177.04C461.061 176.144 459.797 174.848 458.869 173.152C457.973 171.424 457.525 169.376 457.525 167.008V151.408H464.245V166.048C464.245 168.16 464.773 169.792 465.829 170.944C466.885 172.064 468.325 172.624 470.149 172.624C472.005 172.624 473.461 172.064 474.517 170.944C475.573 169.792 476.101 168.16 476.101 166.048V151.408H482.869ZM487.771 164.704C487.771 161.952 488.332 159.552 489.452 157.504C490.572 155.424 492.124 153.824 494.108 152.704C496.092 151.552 498.364 150.976 500.924 150.976C504.22 150.976 506.94 151.808 509.084 153.472C511.26 155.104 512.716 157.408 513.452 160.384H506.204C505.82 159.232 505.164 158.336 504.236 157.696C503.34 157.024 502.22 156.688 500.876 156.688C498.956 156.688 497.436 157.392 496.316 158.8C495.196 160.176 494.636 162.144 494.636 164.704C494.636 167.232 495.196 169.2 496.316 170.608C497.436 171.984 498.956 172.672 500.876 172.672C503.596 172.672 505.372 171.456 506.204 169.024H513.452C512.716 171.904 511.26 174.192 509.084 175.888C506.908 177.584 504.188 178.432 500.924 178.432C498.364 178.432 496.092 177.872 494.108 176.752C492.124 175.6 490.572 174 489.452 171.952C488.332 169.872 487.771 167.456 487.771 164.704ZM526.199 156.928V169.792C526.199 170.688 526.407 171.344 526.823 171.76C527.271 172.144 528.007 172.336 529.031 172.336H532.151V178H527.927C522.263 178 519.431 175.248 519.431 169.744V156.928H516.263V151.408H519.431V144.832H526.199V151.408H532.151V156.928H526.199ZM540.392 148.24C539.208 148.24 538.216 147.872 537.416 147.136C536.648 146.368 536.264 145.424 536.264 144.304C536.264 143.184 536.648 142.256 537.416 141.52C538.216 140.752 539.208 140.368 540.392 140.368C541.576 140.368 542.552 140.752 543.32 141.52C544.12 142.256 544.52 143.184 544.52 144.304C544.52 145.424 544.12 146.368 543.32 147.136C542.552 147.872 541.576 148.24 540.392 148.24ZM543.704 151.408V178H536.984V151.408H543.704ZM562.151 178.432C559.591 178.432 557.287 177.872 555.239 176.752C553.191 175.6 551.575 173.984 550.391 171.904C549.239 169.824 548.663 167.424 548.663 164.704C548.663 161.984 549.255 159.584 550.439 157.504C551.655 155.424 553.303 153.824 555.383 152.704C557.463 151.552 559.783 150.976 562.343 150.976C564.903 150.976 567.223 151.552 569.303 152.704C571.383 153.824 573.015 155.424 574.199 157.504C575.415 159.584 576.023 161.984 576.023 164.704C576.023 167.424 575.399 169.824 574.151 171.904C572.935 173.984 571.271 175.6 569.159 176.752C567.079 177.872 564.743 178.432 562.151 178.432ZM562.151 172.576C563.367 172.576 564.503 172.288 565.559 171.712C566.647 171.104 567.511 170.208 568.151 169.024C568.791 167.84 569.111 166.4 569.111 164.704C569.111 162.176 568.439 160.24 567.095 158.896C565.783 157.52 564.167 156.832 562.247 156.832C560.327 156.832 558.711 157.52 557.399 158.896C556.119 160.24 555.479 162.176 555.479 164.704C555.479 167.232 556.103 169.184 557.351 170.56C558.631 171.904 560.231 172.576 562.151 172.576ZM595.689 151.024C598.857 151.024 601.417 152.032 603.369 154.048C605.321 156.032 606.297 158.816 606.297 162.4V178H599.577V163.312C599.577 161.2 599.049 159.584 597.993 158.464C596.937 157.312 595.497 156.736 593.673 156.736C591.817 156.736 590.345 157.312 589.257 158.464C588.201 159.584 587.673 161.2 587.673 163.312V178H580.953V151.408H587.673V154.72C588.569 153.568 589.705 152.672 591.081 152.032C592.489 151.36 594.025 151.024 595.689 151.024Z" fill="#3579DE"/>
</svg>
