<svg width="140" height="140" viewBox="0 0 140 140" fill="none" xmlns="http://www.w3.org/2000/svg">
<path d="M140 70C140 108.66 108.66 140 70 140C31.3401 140 0 108.66 0 70C0 31.3401 31.3401 0 70 0C108.66 0 140 31.3401 140 70ZM5.6 70C5.6 105.567 34.4329 134.4 70 134.4C105.567 134.4 134.4 105.567 134.4 70C134.4 34.4329 105.567 5.6 70 5.6C34.4329 5.6 5.6 34.4329 5.6 70Z" fill="#3579DE"/>
<path d="M53.952 20.96C51.968 20.32 49.312 20 45.984 20C42.08 20 38.496 20.64 35.232 21.92C31.968 23.2 29.344 25.184 27.36 27.872C25.44 30.496 24.48 33.728 24.48 37.568C24.48 40.896 25.216 43.84 26.688 46.4C28.16 48.896 30.048 51.072 32.352 52.928C34.656 54.784 37.728 56.96 41.568 59.456C46.56 62.656 50.208 65.536 52.512 68.096C53.9542 69.6985 54.9451 71.5016 55.4845 73.5053L67.5923 61.3975C66.4399 59.6802 65.0611 58.1371 63.456 56.768C61.28 54.912 58.304 52.736 54.528 50.24L51.456 48.128C47.872 45.76 45.216 43.904 43.488 42.56C41.76 41.152 40.416 39.616 39.456 37.952C38.496 36.288 38.016 34.336 38.016 32.096C38.016 29.088 38.976 26.72 40.896 24.992C42.88 23.2 45.44 22.304 48.576 22.304C51.776 22.304 54.56 23.296 56.928 25.28C59.36 27.2 61.216 29.728 62.496 32.864C63.84 36 64.64 39.296 64.896 42.752H67.104C67.104 32.448 67.264 25.152 67.584 20.864H65.376C65.184 22.336 64.928 23.424 64.608 24.128C64.288 24.768 63.84 25.088 63.264 25.088C62.88 25.088 62.4 24.96 61.824 24.704C61.312 24.448 60.704 24.128 60 23.744C57.952 22.528 55.936 21.6 53.952 20.96Z" fill="#3579DE"/>
<path d="M39.1403 89.8495L41.1392 87.8506C36.8991 87.2003 33.6501 85.0634 31.392 81.44C28.64 76.96 27.04 71.136 26.592 63.968H24.384C24.384 77.216 24.256 85.856 24 89.888H26.208C26.4 88.416 26.656 87.36 26.976 86.72C27.296 86.016 27.744 85.664 28.32 85.664C29.088 85.664 30.176 86.112 31.584 87.008C33.568 88.096 35.744 88.96 38.112 89.6C38.4429 89.6894 38.7856 89.7726 39.1403 89.8495Z" fill="#3579DE"/>
<rect x="83.9117" y="48" width="2" height="72" transform="rotate(45 83.9117 48)" fill="#3579DE"/>
<path d="M60.3335 77.3131L67.888 88.4L55.12 105.584C50.256 111.984 45.616 115.888 41.2 117.296V119.216C43.248 119.024 46.192 118.928 50.032 118.928C56.496 118.928 61.552 119.024 65.2 119.216V117.296C62.64 117.168 60.624 116.56 59.152 115.472C57.744 114.32 57.04 112.752 57.04 110.768C57.04 108.016 58.512 104.656 61.456 100.688L69.136 90.224L85.264 113.936C85.712 114.576 85.936 115.12 85.936 115.568C85.936 116.208 85.456 116.656 84.496 116.912C83.536 117.104 81.904 117.2 79.6 117.2V119.216C80.432 119.216 81.104 119.184 81.616 119.12C88.528 118.928 93.008 118.832 95.056 118.832C97.168 118.832 101.552 118.96 108.208 119.216V117.2C106.928 117.136 105.904 116.784 105.136 116.144C104.368 115.504 103.344 114.256 102.064 112.4L79.6 79.568L91.792 63.248C93.648 60.688 95.6 58.512 97.648 56.72C99.76 54.928 101.84 53.744 103.888 53.168V51.248C101.84 51.44 98.896 51.536 95.056 51.536C91.9299 51.536 88.9962 51.4879 86.255 51.3917L84.3417 53.305C85.9236 53.5355 87.191 54.0018 88.144 54.704C89.36 55.6 89.968 56.848 89.968 58.448C89.968 60.944 88.464 64.176 85.456 68.144L78.352 77.744L70.8617 66.785L60.3335 77.3131Z" fill="#3579DE"/>
</svg>
