<?xml version="1.0" standalone="no"?>
<!DOCTYPE svg PUBLIC "-//W3C//DTD SVG 20010904//EN"
 "http://www.w3.org/TR/2001/REC-SVG-20010904/DTD/svg10.dtd">
<svg version="1.0" xmlns="http://www.w3.org/2000/svg"
 width="700.000000pt" height="700.000000pt" viewBox="0 0 700.000000 700.000000"
 preserveAspectRatio="xMidYMid meet">
<metadata>
Created by potrace 1.14, written by Peter Selinger 2001-2017
</metadata>
<g transform="translate(0.000000,700.000000) scale(0.100000,-0.100000)"
fill="#000000" stroke="none">
<path d="M895 6990 c-22 -5 -55 -11 -73 -14 -95 -18 -362 -133 -362 -157 0 -4
-9 -11 -21 -14 -31 -10 -210 -192 -256 -260 -61 -91 -120 -222 -151 -331 l-27
-99 0 -2605 c0 -2501 1 -2608 19 -2684 60 -257 192 -461 398 -616 123 -93 238
-144 443 -197 17 -4 1191 -9 2610 -10 2820 -3 2639 -6 2815 54 148 50 258 117
377 227 160 149 262 331 313 562 19 87 20 135 17 2679 l-2 2590 -28 100 c-109
388 -402 670 -790 760 l-102 23 -2570 0 c-1413 0 -2588 -4 -2610 -8z"/>
</g>
</svg>
